<?xml version="1.0" standalone="no"?>
<!DOCTYPE svg PUBLIC "-//W3C//DTD SVG 20010904//EN"
 "http://www.w3.org/TR/2001/REC-SVG-20010904/DTD/svg10.dtd">
<svg version="1.0" xmlns="http://www.w3.org/2000/svg"
 width="30pt" height="30pt" viewBox="0 0 430.000000 381.000000"
 preserveAspectRatio="xMidYMid meet">

<g transform="translate(0.000000,381.000000) scale(0.100000,-0.100000)"
fill="#000000" stroke="none">
<path d="M1517 3646 c-129 -46 -238 -196 -338 -464 -23 -59 -42 -108 -43 -110
-2 -1 -61 -9 -132 -17 -427 -49 -685 -141 -750 -266 -19 -37 -18 -123 2 -165
36 -75 142 -111 289 -99 50 5 169 7 266 6 l176 -3 7 27 c4 15 6 29 4 30 -2 2
-62 -7 -133 -21 -72 -13 -139 -23 -150 -23 -18 1 147 36 254 54 l44 7 -7 -38
c-72 -410 -80 -761 -26 -1078 73 -425 256 -705 545 -837 248 -112 652 -116
866 -9 131 66 189 149 189 266 -1 114 -30 171 -105 205 -61 28 -105 23 -254
-27 -151 -51 -235 -63 -323 -45 -244 51 -399 289 -438 676 -17 155 -7 436 20
617 24 162 55 316 65 326 4 4 75 7 158 7 176 -1 253 -14 427 -76 63 -22 160
-57 216 -76 120 -43 155 -40 214 13 51 46 74 106 68 181 -17 230 -272 346
-850 388 -49 4 -88 11 -88 16 0 4 10 32 21 61 82 203 97 303 60 376 -49 95
-151 134 -254 98z"/>
<path d="M1711 3144 c-6 -15 -10 -28 -9 -29 2 -1 68 -8 148 -14 172 -15 340
-42 430 -70 49 -16 92 -21 179 -21 107 0 116 -2 147 -25 19 -14 110 -112 202
-218 93 -106 179 -201 191 -212 22 -19 41 -20 401 -25 363 -5 380 -6 407 -26
15 -11 36 -36 45 -55 17 -32 18 -98 18 -949 l0 -916 -22 -44 c-13 -25 -38 -55
-57 -68 l-34 -22 -1642 2 -1641 3 -36 24 c-19 13 -46 40 -59 59 l-24 36 -3
915 c-2 671 1 923 9 944 6 15 24 38 40 51 29 25 23 36 -20 36 -10 0 -40 12
-67 26 l-48 26 -23 -26 c-54 -63 -54 -54 -51 -1067 l3 -934 22 -47 c30 -66
105 -143 172 -175 l56 -28 1680 0 1680 0 54 30 c61 34 110 89 143 161 l23 49
0 965 c0 960 0 965 -21 1011 -31 66 -78 114 -142 146 l-57 28 -350 5 -350 5
-136 150 c-163 181 -261 274 -314 300 -38 19 -66 20 -486 23 l-446 3 -12 -27z"/>
<path d="M1894 2366 c-145 -38 -284 -118 -384 -220 l-45 -47 -3 -107 c-2 -59
-2 -125 0 -147 l3 -40 29 55 c71 135 176 237 311 301 111 53 180 69 305 69
125 0 194 -16 305 -69 144 -69 251 -176 320 -323 49 -105 65 -176 65 -298 0
-173 -51 -315 -164 -451 l-52 -64 4 -93 c2 -50 8 -92 12 -92 17 0 164 147 206
206 173 243 205 579 79 851 -82 177 -224 322 -404 413 -162 81 -400 104 -587
56z"/>
<path d="M3070 2285 l0 -85 85 0 85 0 0 85 0 85 -85 0 -85 0 0 -85z"/>
<path d="M2003 1841 c-186 -67 -265 -276 -172 -452 36 -67 68 -97 143 -137 44
-23 63 -27 136 -27 73 0 92 4 136 27 76 40 107 70 145 140 31 58 34 70 34 148
0 78 -3 90 -35 148 -18 35 -52 79 -76 98 -85 70 -208 92 -311 55z"/>
</g>
</svg>
